<?xml version="1.0" encoding="UTF-8" standalone="no"?>
<!-- Generator: Adobe Illustrator 16.0.0, SVG Export Plug-In . SVG Version: 6.00 Build 0)  -->

<svg
   xmlns:dc="http://purl.org/dc/elements/1.1/"
   xmlns:cc="http://creativecommons.org/ns#"
   xmlns:rdf="http://www.w3.org/1999/02/22-rdf-syntax-ns#"
   xmlns:svg="http://www.w3.org/2000/svg"
   xmlns="http://www.w3.org/2000/svg"
   xmlns:sodipodi="http://sodipodi.sourceforge.net/DTD/sodipodi-0.dtd"
   xmlns:inkscape="http://www.inkscape.org/namespaces/inkscape"
   version="1.1"
   id="Layer_1"
   x="0px"
   y="0px"
   width="80"
   height="160"
   viewBox="0 0 80 159.99999"
   enable-background="new 0 0 207.562 214.378"
   xml:space="preserve"
   sodipodi:docname="butelka2.svg"
   inkscape:version="0.92.1 15371"><metadata
     id="metadata17"><rdf:RDF><cc:Work
         rdf:about=""><dc:format>image/svg+xml</dc:format><dc:type
           rdf:resource="http://purl.org/dc/dcmitype/StillImage" /><dc:title></dc:title></cc:Work></rdf:RDF></metadata><defs
     id="defs15"><inkscape:path-effect
       effect="bspline"
       id="path-effect936"
       is_visible="true"
       weight="33.333333"
       steps="2"
       helper_size="0"
       apply_no_weight="true"
       apply_with_weight="true"
       only_selected="false" /><inkscape:path-effect
       effect="bspline"
       id="path-effect932"
       is_visible="true"
       weight="33.333333"
       steps="2"
       helper_size="0"
       apply_no_weight="true"
       apply_with_weight="true"
       only_selected="false" /><inkscape:path-effect
       effect="bspline"
       id="path-effect928"
       is_visible="true"
       weight="33.333333"
       steps="2"
       helper_size="0"
       apply_no_weight="true"
       apply_with_weight="true"
       only_selected="false" /><inkscape:path-effect
       effect="bspline"
       id="path-effect906"
       is_visible="true"
       weight="33.333333"
       steps="2"
       helper_size="0"
       apply_no_weight="true"
       apply_with_weight="true"
       only_selected="false" /><inkscape:path-effect
       effect="bspline"
       id="path-effect902"
       is_visible="true"
       weight="33.333333"
       steps="2"
       helper_size="0"
       apply_no_weight="true"
       apply_with_weight="true"
       only_selected="false" /><inkscape:path-effect
       effect="bspline"
       id="path-effect896"
       is_visible="true"
       weight="33.333333"
       steps="2"
       helper_size="0"
       apply_no_weight="true"
       apply_with_weight="true"
       only_selected="false" /><inkscape:path-effect
       effect="bspline"
       id="path-effect41"
       is_visible="true"
       weight="33.333333"
       steps="2"
       helper_size="0"
       apply_no_weight="true"
       apply_with_weight="true"
       only_selected="false" /><inkscape:path-effect
       effect="bspline"
       id="path-effect37"
       is_visible="true"
       weight="33.333333"
       steps="2"
       helper_size="0"
       apply_no_weight="true"
       apply_with_weight="true"
       only_selected="false" /><inkscape:path-effect
       effect="bspline"
       id="path-effect33"
       is_visible="true"
       weight="33.333333"
       steps="2"
       helper_size="0"
       apply_no_weight="true"
       apply_with_weight="true"
       only_selected="false" /><inkscape:path-effect
       effect="bspline"
       id="path-effect25"
       is_visible="true"
       weight="33.333333"
       steps="2"
       helper_size="0"
       apply_no_weight="true"
       apply_with_weight="true"
       only_selected="false" /><inkscape:path-effect
       effect="bspline"
       id="path-effect41-7"
       is_visible="true"
       weight="33.333333"
       steps="2"
       helper_size="0"
       apply_no_weight="true"
       apply_with_weight="true"
       only_selected="false" /><inkscape:path-effect
       effect="bspline"
       id="path-effect906-3"
       is_visible="true"
       weight="33.333333"
       steps="2"
       helper_size="0"
       apply_no_weight="true"
       apply_with_weight="true"
       only_selected="false" /></defs><sodipodi:namedview
     pagecolor="#ffffff"
     bordercolor="#666666"
     borderopacity="1"
     objecttolerance="10"
     gridtolerance="10"
     guidetolerance="10"
     inkscape:pageopacity="0"
     inkscape:pageshadow="2"
     inkscape:window-width="1315"
     inkscape:window-height="744"
     id="namedview13"
     showgrid="true"
     inkscape:zoom="4.4034368"
     inkscape:cx="28.152532"
     inkscape:cy="103.14516"
     inkscape:window-x="51"
     inkscape:window-y="24"
     inkscape:window-maximized="1"
     inkscape:current-layer="Layer_1"><inkscape:grid
       type="xygrid"
       id="grid19" /></sodipodi:namedview><path
     id="path934"
     style="fill:none;stroke:#000000;stroke-width:8;stroke-linecap:butt;stroke-linejoin:miter;stroke-miterlimit:4;stroke-dasharray:none;stroke-opacity:1"
     inkscape:path-effect="#path-effect936"
     inkscape:original-d="M 74,78.999991 C 74.001,97.999 74.001,116.999 74,136 M 6,78.999991 C 6.001,97.999 6.001,116.999 6,136 m 68,0 c -0.001,4.33233 -0.001,8.66567 0,13 -4.33541,-0.001 -8.66767,-0.001 -13,0 M 27,38.999991 c 8.667667,-0.001 17.33433,-0.001 26,0 m 21,40 c -0.001,-3.24769 -0.001,-6.66765 0,-9.99999 -1.001,-1.66768 -3,-5.00001 -3,-5.00001 0,0 -2.77111,-2.07858 -4,-3 -0.30847,-1.2309 -0.66767,-2.66767 -1,-4 -0.001,-1.66767 -0.001,-3.33384 0,-5 0.9993,-2.33504 1.9987,-4.66697 3,-7 -0.001,-0.66787 -0.001,-1.33434 0,-2 -0.001,-0.66767 -0.001,-1.33434 0,-2 l -2,-2 c -2.66567,-0.001 -5.33433,-0.001 -8,0 -2.001,-0.001 -6,0 -6,0 m -47,40 c 0.001,-3.24769 0.001,-6.66765 0,-9.99999 1.001001,-1.66767 3,-5.00001 3,-5.00001 0,0 2.771107,-2.07858 4,-3 0.308473,-1.23089 0.667667,-2.66767 1,-4 10e-4,-1.66767 10e-4,-3.33383 0,-5 -0.9993,-2.33503 -1.998699,-4.66696 -3,-7 10e-4,-0.66787 10e-4,-1.33433 0,-2 10e-4,-0.66767 10e-4,-1.33433 0,-2 l 2,-2 c 2.665666,-0.001 5.334333,-0.001 8,0 2.001,-0.001 6,0 6,0 M 19,149 c 14.001,-0.001 28.001,-0.001 42,0 M 6,136 c 0.001,4.33233 0.001,8.66567 0,13 4.335416,-0.001 8.667666,-0.001 13,0"
     d="M 74,78.999991 C 74,97.999 74,116.999 74,136 M 6,78.999991 C 6,97.999 6,116.999 6,136 m 68,0 c 0,4.33233 0,8.66567 -2.167705,10.83283 C 69.66459,149 65.33233,149 61,149 M 27,38.999991 c 8.667667,0 17.33433,0 26,0 m 21,40 c 0,-3.24769 0,-6.66765 -0.500355,-9.167747 C 72.99929,67.332147 72,65.666661 71,63.999991 c -1.333333,-1 -2.771229,-2.078422 -3.539499,-3.154748 -0.76827,-1.076327 -1.127463,-2.513099 -1.293982,-4.013011 C 66,55.332321 66,53.666151 66.500255,51.66581 67.000509,49.665469 67.999908,47.333539 68.499954,45.83283 69,44.332121 69,43.665651 69,42.998986 c 0,-0.666665 0,-1.333335 0,-1.666165 0,-0.33283 -2,-2.33283 -3.332835,-2.33283 -1.332835,0 -4.001495,0 -6.33483,0 -2.333335,0 -4.332335,0 -6.332335,0 m -47,40 C 6,75.752301 6,72.332341 6.5003531,69.832248 7.0007061,67.332154 8,65.666661 9,63.999991 c 1.333333,-1 2.771227,-2.07842 3.539497,-3.154743 0.76827,-1.076324 1.127465,-2.513103 1.293984,-4.013015 C 14,55.332321 14,53.666161 13.499747,51.665819 12.999494,49.665478 12.000096,47.333548 11.500048,45.832834 11,44.332121 11,43.665661 11,42.998991 c 0,-0.66667 0,-1.33333 0,-1.666165 0,-0.332835 2,-2.332835 3.332833,-2.332835 1.332833,0 4.0015,0 6.334834,0 2.333333,0 4.332333,0 6.332333,0 M 19,149 c 14.001,0 28.001,0 42,0 M 6,136 c 0,4.33233 0,8.66567 2.167708,10.83283 C 10.335416,149 14.667666,149 19,149"
     inkscape:connector-curvature="0" /><path
     style="fill:#000000;stroke:none;stroke-width:8.03939819;stroke-miterlimit:4;stroke-dasharray:none"
     d="M 11.898857,27.603 C 8.3777208,26.82023 6.5871893,24.65521 5.9086925,20.36001 5.6134933,18.49126 5.7803173,14.98902 6.2464912,13.26843 6.9254496,10.76249 8.2031298,9.15602 10.293494,8.17999 L 11.55485,7.59105 39.396325,7.52985 c 30.523051,-0.0671 29.551714,-0.10604 31.55697,1.26509 1.136613,0.77717 2.28997,2.44213 2.76053,3.98503 0.512117,1.67911 0.681796,5.38602 0.350578,7.65886 -0.528336,3.62548 -2.168037,5.95862 -4.866713,6.92484 -1.183279,0.42365 -2.176005,0.44027 -28.631629,0.47931 -21.035388,0.031 -27.699048,-0.0247 -28.667204,-0.23997 z M 59.859448,20 62.75519,19.84457 64.433742,18.73932 66.112293,17.63407 65.445595,17.10765 C 65.0789,16.81813 64.258892,16.29573 63.623348,15.94677 L 62.46781,15.31229 H 39.733905 17 l -1.231884,0.85474 c -2.334887,1.62006 -2.233436,1.49089 -1.584472,2.01739 1.703546,1.38207 2.533127,1.66431 5.283356,1.79754 3.841055,0.18606 36.986285,0.20087 40.392448,0.0181 z"
     id="path940"
     inkscape:connector-curvature="0" /><path
     style="fill:#ffffff;stroke:none;stroke-width:0.9083814;stroke-miterlimit:4;stroke-dasharray:none"
     d="m 21.99239,19.965855 c -4.42577,-0.09809 -5.083186,-0.181337 -6.220982,-0.787776 -0.358956,-0.191322 -0.950276,-0.581456 -1.314044,-0.866965 l -0.661396,-0.519107 0.251829,-0.268059 c 0.138506,-0.147433 0.881138,-0.70504 1.650292,-1.239127 l 1.398463,-0.971068 H 39.728331 62.36011 l 1.134716,0.637893 c 0.624094,0.35084 1.449716,0.868464 1.834718,1.150275 l 0.700002,0.512384 -1.686937,1.10789 -1.686936,1.107891 -1.28402,0.07003 c -2.020549,0.110203 -34.896638,0.165085 -39.379263,0.06574 z"
     id="path942"
     inkscape:connector-curvature="0" /><path
     style="fill:#ffffff;stroke:none;stroke-width:0.9083814;stroke-miterlimit:4;stroke-dasharray:none"
     d="m 21.99239,19.959298 c -4.428958,-0.09095 -5.079087,-0.172595 -6.220982,-0.781219 -0.358956,-0.191322 -0.950276,-0.581456 -1.314044,-0.866965 l -0.661396,-0.519107 0.253785,-0.270141 c 0.139581,-0.148578 0.879782,-0.706185 1.64489,-1.239127 l 1.391105,-0.968986 h 22.612557 22.612557 l 0.478054,0.240163 c 0.77561,0.389647 1.790903,1.010913 2.548641,1.559535 l 0.708016,0.512622 -1.709636,1.115176 -1.709638,1.115177 -4.675762,0.11135 c -5.24059,0.124802 -29.749483,0.119023 -35.958147,-0.0085 z"
     id="path944"
     inkscape:connector-curvature="0" /><path
     style="fill:#ffffff;stroke:none;stroke-width:0.9083814;stroke-miterlimit:4;stroke-dasharray:none"
     d="m 21.651747,19.964771 c -4.723095,-0.102749 -5.469734,-0.274152 -7.203724,-1.653737 l -0.674732,-0.536825 0.459217,-0.407007 c 0.252569,-0.223854 0.998874,-0.777457 1.658454,-1.230228 l 1.199239,-0.823221 h 22.658562 22.658563 l 1.111108,0.638342 c 0.611109,0.351089 1.436449,0.868908 1.834089,1.150711 l 0.722982,0.512369 -1.722061,1.122008 -1.722063,1.122008 -4.564755,0.109196 c -5.059232,0.121026 -30.802919,0.118469 -36.414879,-0.0036 z"
     id="path946"
     inkscape:connector-curvature="0" /></svg>