<?xml version="1.0" encoding="UTF-8" standalone="no"?>
<!-- Generator: Adobe Illustrator 16.0.0, SVG Export Plug-In . SVG Version: 6.00 Build 0)  -->

<svg
   xmlns:dc="http://purl.org/dc/elements/1.1/"
   xmlns:cc="http://creativecommons.org/ns#"
   xmlns:rdf="http://www.w3.org/1999/02/22-rdf-syntax-ns#"
   xmlns:svg="http://www.w3.org/2000/svg"
   xmlns="http://www.w3.org/2000/svg"
   xmlns:sodipodi="http://sodipodi.sourceforge.net/DTD/sodipodi-0.dtd"
   xmlns:inkscape="http://www.inkscape.org/namespaces/inkscape"
   version="1.1"
   id="Layer_1"
   x="0px"
   y="0px"
   width="400"
   height="400"
   viewBox="0 0 399.99998 399.99999"
   enable-background="new 0 0 595.28 841.89"
   xml:space="preserve"
   sodipodi:docname="potb.svg"
   inkscape:version="0.92.1 15371"><metadata
     id="metadata4071"><rdf:RDF><cc:Work
         rdf:about=""><dc:format>image/svg+xml</dc:format><dc:type
           rdf:resource="http://purl.org/dc/dcmitype/StillImage" /><dc:title></dc:title></cc:Work></rdf:RDF></metadata><defs
     id="defs4069" /><sodipodi:namedview
     pagecolor="#ffffff"
     bordercolor="#666666"
     borderopacity="1"
     objecttolerance="10"
     gridtolerance="10"
     guidetolerance="10"
     inkscape:pageopacity="0"
     inkscape:pageshadow="2"
     inkscape:window-width="1315"
     inkscape:window-height="744"
     id="namedview4067"
     showgrid="false"
     inkscape:zoom="0.5606433"
     inkscape:cx="-79.782441"
     inkscape:cy="165.62207"
     inkscape:window-x="51"
     inkscape:window-y="24"
     inkscape:window-maximized="1"
     inkscape:current-layer="Layer_1" /><g
     inkscape:groupmode="layer"
     id="layer5"
     inkscape:label="Layer 2" /><path
     style="clip-rule:evenodd;fill:#a2b8f4;fill-rule:evenodd;fill-opacity:1"
     inkscape:connector-curvature="0"
     id="path4054"
     d="m -2.6976073,-18.474519 c 149.9999973,0 299.9999973,0 449.9999973,0 0,149.999999 0,299.999999 0,449.999999 -150,0 -300,0 -449.9999973,0 0,-150 0,-300 0,-449.999999 z M 299.27339,172.52848 c 12.221,-5.255 26.512,1.984 29.929,16.163 6.125,25.415 7.952,51.305 8.377,77.35 0.076,4.65 0.315,9.351 1.104,13.92 0.609,3.525 1.579,7.543 6.479,7.551 3.792,0.006 8.097,-4.895 8.299,-9.244 0.139,-2.994 0.135,-5.997 0.136,-8.996 0.005,-33.161 0.297,-66.326 -0.135,-99.481 -0.206,-15.77 -10.796,-25.079 -26.817,-25.118 -16.499,-0.04 -33.044,-0.764 -49.481,0.242 -10.677,0.653 -17.981,-5.301 -26.871,-9.116 5.66,-13.373 11.114,-26.234 16.547,-39.103999 2.377,-5.632 2.094,-6.122 -3.778,-7.049 -11.846,-1.869 -23.687,-3.763 -35.534,-5.62 -28.626,-4.488 -57.25,-8.99 -85.892,-13.375 -1.761,-0.27 -3.67,0.425 -5.51,0.671 0.691,1.757 1.103,3.699 2.125,5.235 3.415,5.128 6.532,10.592 10.7,15.052 10.277,10.997999 13.345,23.913999 12.363,38.471999 -0.263,3.895 -1.041,5.92 -4.84,7.863 -43.328,22.167 -66.564997,57.87 -65.562997,106.43 0.95,46.077 23.426997,80.315 65.283997,100.938 2.303,1.135 5.051,1.936 7.59,1.933 28.165,-0.032 56.329,-0.23 84.492,-0.477 1.93,-0.017 4,-0.45 5.756,-1.241 50.758,-22.862 78.082,-82.996 61.254,-136.235 -3.965,-12.544 -10.495,-24.275 -16.014,-36.764 z"
     inkscape:export-xdpi="96"
     inkscape:export-ydpi="96" /><path
     style="clip-rule:evenodd;fill-rule:evenodd"
     inkscape:connector-curvature="0"
     id="path4056"
     d="m 299.27339,172.52848 c 5.52,12.489 12.049,24.22 16.014,36.762 16.828,53.239 -10.496,113.373 -61.254,136.235 -1.756,0.791 -3.826,1.225 -5.756,1.241 -28.163,0.246 -56.327,0.444 -84.492,0.477 -2.54,0.003 -5.287,-0.798 -7.59,-1.933 -41.857,-20.622 -64.333997,-54.86 -65.283997,-100.938 -1.002,-48.56 22.234997,-84.263 65.562997,-106.43 3.799,-1.943 4.577,-3.969 4.84,-7.863 0.982,-14.558 -2.086,-27.474 -12.363,-38.471999 -4.168,-4.46 -7.285,-9.924 -10.7,-15.052 -1.023,-1.536 -1.434,-3.479 -2.125,-5.235 1.84,-0.246 3.749,-0.94 5.51,-0.671 28.642,4.385 57.266,8.887 85.892,13.375 11.848,1.857 23.688,3.751 35.534,5.62 5.872,0.927 6.155,1.417 3.778,7.049 -5.433,12.868999 -10.887,25.729999 -16.547,39.103999 8.89,3.815 16.194,9.77 26.871,9.116 16.438,-1.006 32.982,-0.282 49.481,-0.242 16.021,0.039 26.611,9.349 26.817,25.118 0.432,33.155 0.14,66.32 0.135,99.481 -0.001,2.999 0.003,6.002 -0.136,8.996 -0.202,4.35 -4.507,9.25 -8.299,9.244 -4.9,-0.008 -5.87,-4.025 -6.479,-7.551 -0.789,-4.569 -1.028,-9.27 -1.104,-13.92 -0.425,-26.045 -2.252,-51.935 -8.377,-77.35 -3.418,-14.177 -17.709,-21.416 -29.929,-16.161 z m -93.766,170.204 c 0,-0.09 0,-0.179 0,-0.268 13.494,0 26.988,0.104 40.479,-0.087 2.71,-0.038 5.7,-0.643 8.063,-1.912 40.532,-21.779 62.413,-55.597 61.218,-101.765 -1.181,-45.597 -24.506,-77.987 -65.321,-97.882 -1.992,-0.971 -4.471,-1.313 -6.725,-1.322 -25.155,-0.096 -50.311,-0.116 -75.465,0 -2.563,0.013 -5.318,0.618 -7.65,1.682 -18.107,8.255 -32.93,20.496 -44.557,36.721 -39.558997,55.203 -19.819997,133.137 41.401,162.765 2.586,1.252 5.696,1.934 8.576,1.978 13.325,0.204 26.654,0.09 39.981,0.09 z m -40.273,-207.886 c 26.906,0 52.542,0.046 78.178,-0.139 1.252,-0.009 3.039,-1.785 3.646,-3.152 3.992,-8.972 7.743,-18.052 11.541,-27.109 1.378,-3.284 2.67,-6.603999 4.172,-10.335999 -39.992,-6.267 -79.235,-12.416 -119.609,-18.742 1.405,2.178 2.211,3.528 3.116,4.811 5.089,7.211 10.087,14.491 15.356,21.567999 2.498,3.355 3.8,6.785 3.663,11.021 -0.231,7.12 -0.063,14.253 -0.063,22.078 z m 112.761,14.379 c 3.822,4.695 8.563,10.285 13.02,16.09 2.203,2.867 4.183,3.553 7.918,2.451 15.69,-4.625 30.141,3.427 34.239,19.113 2.181,8.348 4.106,16.883 4.894,25.449 1.78,19.376 2.734,38.827 4.143,58.238 0.298,4.112 1.102,8.188 1.672,12.28 0.806,0.087 1.612,0.173 2.418,0.259 0.959,-2.388 2.741,-4.771 2.753,-7.164 0.182,-35.634 0.134,-71.269 0.127,-106.904 -0.001,-7.992 -3.769,-13.799 -10.946,-16.954 -3.55,-1.561 -7.604,-2.668 -11.452,-2.733 -17.115,-0.288 -34.235,-0.125 -48.786,-0.125 z" /><path
     style="clip-rule:evenodd;fill:none;fill-rule:evenodd"
     inkscape:connector-curvature="0"
     id="path4058"
     d="m 205.50739,342.73248 c -13.327,0 -26.656,0.114 -39.98,-0.091 -2.88,-0.044 -5.99,-0.726 -8.576,-1.978 -61.221997,-29.628 -80.959997,-107.562 -41.401,-162.765 11.626,-16.225 26.449,-28.466 44.557,-36.721 2.332,-1.063 5.087,-1.669 7.65,-1.682 25.155,-0.116 50.31,-0.096 75.465,0 2.254,0.009 4.732,0.352 6.725,1.322 40.815,19.895 64.141,52.285 65.321,97.882 1.195,46.168 -20.686,79.985 -61.218,101.765 -2.363,1.27 -5.354,1.874 -8.063,1.912 -13.491,0.19 -26.986,0.087 -40.479,0.087 -0.001,0.09 -0.001,0.179 -0.001,0.269 z" /><path
     style="clip-rule:evenodd;fill:#ffffff;fill-rule:evenodd"
     inkscape:connector-curvature="0"
     id="path4060"
     d="m 165.23439,134.84648 c 0,-7.825 -0.168,-14.958 0.063,-22.078 0.138,-4.236 -1.165,-7.666 -3.663,-11.021 -5.269,-7.076999 -10.268,-14.356999 -15.356,-21.567999 -0.904,-1.282 -1.71,-2.633 -3.116,-4.811 40.374,6.326 79.617,12.476 119.609,18.742 -1.502,3.731 -2.794,7.051999 -4.172,10.335999 -3.798,9.058 -7.549,18.138 -11.541,27.109 -0.607,1.367 -2.395,3.144 -3.646,3.152 -25.636,0.185 -51.272,0.139 -78.178,0.139 z" /><path
     style="clip-rule:evenodd;fill:#ffffff;fill-rule:evenodd"
     inkscape:connector-curvature="0"
     id="path4062"
     d="m 277.99539,149.22548 c 14.551,0 31.671,-0.163 48.784,0.125 3.848,0.065 7.902,1.173 11.452,2.733 7.178,3.155 10.945,8.962 10.946,16.954 0.007,35.636 0.055,71.271 -0.127,106.904 -0.012,2.394 -1.794,4.776 -2.753,7.164 -0.806,-0.086 -1.612,-0.172 -2.418,-0.259 -0.57,-4.092 -1.374,-8.168 -1.672,-12.28 -1.408,-19.411 -2.362,-38.862 -4.143,-58.238 -0.787,-8.566 -2.713,-17.102 -4.894,-25.449 -4.099,-15.687 -18.549,-23.738 -34.239,-19.113 -3.735,1.102 -5.715,0.416 -7.918,-2.451 -4.455,-5.805 -9.195,-11.394 -13.018,-16.09 z" /><path
     style="fill:none;stroke-width:1.7836653"
     d="m 158.66698,340.1437 c -12.08165,-4.57314 -29.35776,-18.12823 -38.94192,-30.5544 -41.790613,-54.18284 -26.223154,-129.7474 33.79592,-164.04567 8.01778,-4.58181 8.07401,-4.58682 51.76688,-4.60828 l 43.74038,-0.0215 11.50956,6.68874 c 24.57182,14.27984 44.63936,40.61406 50.77078,66.62545 3.44554,14.61706 3.44554,40.30873 0,54.92579 -5.95013,25.24232 -24.97702,50.70477 -48.62238,65.0682 l -11.23218,6.823 -43.16961,0.76964 c -33.69495,0.6007 -44.58474,0.23396 -49.61743,-1.67099 z"
     id="path4078"
     inkscape:connector-curvature="0" /><g
     inkscape:groupmode="layer"
     id="layer4"
     inkscape:label="Layer 1" /></svg>