<?xml version="1.0" encoding="utf-8"?>
<!-- Generator: Adobe Illustrator 16.0.0, SVG Export Plug-In . SVG Version: 6.00 Build 0)  -->
<!DOCTYPE svg PUBLIC "-//W3C//DTD SVG 1.1//EN" "http://www.w3.org/Graphics/SVG/1.1/DTD/svg11.dtd">
<svg version="1.1" id="Layer_1" xmlns="http://www.w3.org/2000/svg" xmlns:xlink="http://www.w3.org/1999/xlink" x="0px" y="0px"
	 width="595.28px" height="841.89px" viewBox="0 0 595.28 841.89" enable-background="new 0 0 595.28 841.89" xml:space="preserve">
<path fill-rule="evenodd" clip-rule="evenodd" d="M374.906,388.273c4.139,7.627,8.617,14.672,11.952,22.222
	c25.123,56.883,1.092,122.366-54.81,149.638c-2.438,1.189-5.371,1.873-8.084,1.903c-27.494,0.305-54.99,0.466-82.486,0.527
	c-2.571,0.006-5.391-0.438-7.68-1.537c-39.109-18.766-61.376-49.929-65.688-92.915c-4.972-49.563,21.017-94.005,66.088-115.285
	c2.85-1.346,4.005-2.828,3.821-5.977c-0.398-6.817-0.305-13.664-0.76-20.476c-0.134-2.007-1.094-4.169-2.255-5.862
	c-6.403-9.34-13.049-18.514-19.452-27.854c-1.219-1.778-1.718-4.05-2.549-6.095c2.052-0.156,4.165-0.715,6.145-0.409
	c32.749,5.059,65.479,10.227,98.214,15.368c7.734,1.215,15.471,2.401,23.199,3.646c4.69,0.757,5.139,1.473,3.296,5.879
	c-5.203,12.442-10.499,24.846-15.735,37.274c-0.373,0.887-0.561,1.852-0.841,2.805c5.143,2.822,10.018,5.668,15.066,8.164
	c1.53,0.757,3.539,0.741,5.329,0.746c18.665,0.053,37.33,0.003,55.995,0.054c15.671,0.042,26.25,9.504,26.43,24.979
	c0.386,33.155,0.129,66.317,0.126,99.477c-0.001,2.999,0.089,6.012-0.173,8.991c-0.138,1.563-0.495,3.602-1.545,4.489
	c-2.276,1.927-4.993,4.386-7.656,4.548c-3.708,0.227-4.859-3.767-5.344-6.84c-0.749-4.749-1.104-9.598-1.182-14.411
	c-0.426-26.043-2.259-51.929-8.39-77.34C402.523,389.827,388.27,382.621,374.906,388.273z M282.03,558.145c0-0.088,0-0.176,0-0.264
	c13.657,0,27.314,0.06,40.97-0.061c2.256-0.02,4.773-0.324,6.718-1.351c41.012-21.655,63.366-55.498,62.308-102.105
	c-1.029-45.36-24.049-77.782-64.559-97.83c-2.277-1.128-5.071-1.688-7.629-1.701c-25.148-0.129-50.298-0.134-75.447-0.016
	c-2.562,0.012-5.314,0.63-7.647,1.693c-18.271,8.324-33.104,20.777-44.855,37.111c-39.46,54.849-18.752,134.591,42.488,162.866
	c2.32,1.071,5.105,1.555,7.682,1.585C255.381,558.228,268.706,558.145,282.03,558.145z M241.866,349.321
	c1.456,0.597,1.762,0.831,2.069,0.832c25.308,0.05,50.617,0.127,75.925-0.012c1.314-0.008,3.251-1.593,3.828-2.912
	c5.004-11.428,9.771-22.959,14.572-34.475c0.408-0.979,0.543-2.069,0.879-3.396c-39.727-6.218-79.002-12.365-118.278-18.513
	c5.723,9.846,12.1,18.546,18.056,27.524c1.63,2.456,2.663,5.713,2.819,8.663C242.128,334.475,241.866,341.953,241.866,349.321z
	 M420.438,498.296c0.936,0.085,1.871,0.17,2.808,0.255c0.896-2.606,2.557-5.208,2.571-7.819
	c0.191-34.802,0.244-69.605,0.125-104.407c-0.047-13.612-8.661-21.753-22.454-21.778c-15.653-0.029-31.307-0.01-46.959,0.016
	c-1.549,0.003-3.097,0.191-4.645,0.293c0.555-0.349,1.109-0.697,1.664-1.046c4.807,5.708,9.748,11.31,14.359,17.17
	c2.15,2.731,3.95,3.309,7.501,2.248c15.898-4.75,30.372,3.36,34.497,19.366c2.153,8.355,4.056,16.893,4.843,25.46
	c1.765,19.21,2.718,38.493,4.105,57.74C419.156,489.977,419.898,494.129,420.438,498.296z"/>
</svg>
