<?xml version="1.0" encoding="utf-8"?>
<!-- Generator: Adobe Illustrator 16.0.0, SVG Export Plug-In . SVG Version: 6.00 Build 0)  -->
<!DOCTYPE svg PUBLIC "-//W3C//DTD SVG 1.1//EN" "http://www.w3.org/Graphics/SVG/1.1/DTD/svg11.dtd">
<svg version="1.1" id="Layer_1" xmlns="http://www.w3.org/2000/svg" xmlns:xlink="http://www.w3.org/1999/xlink" x="0px" y="0px"
	 width="207.562px" height="214.378px" viewBox="0 0 207.562 214.378" enable-background="new 0 0 207.562 214.378"
	 xml:space="preserve">
<g>
	<path fill-rule="evenodd" clip-rule="evenodd" fill="#FFFFFF" d="M0,214.378c0-66.936,0-133.87,0-200.89
		c66.87,0,133.762,0,200.803,0c0,66.906,0,133.897,0,200.89C133.922,214.378,66.972,214.378,0,214.378z M138.278,138.387
		c-0.08-0.001-0.16-0.001-0.239-0.001c0-11.329,0.15-22.66-0.062-33.985c-0.111-5.91-2.274-10.921-7.58-14.412
		c-1.061-0.697-1.699-4.376-1.003-5.017c4.101-3.77,2.939-8.45,2.188-12.642c-0.339-1.892-3.42-4.654-5.306-4.694
		c-17.321-0.365-34.655-0.329-51.98-0.062c-1.82,0.027-4.667,1.945-5.204,3.585c-1.484,4.531-2.336,9.294,1.543,13.591
		c0.824,0.912,0.523,4.489-0.367,5.035c-6.582,4.041-8.154,10.361-8.204,17.219c-0.158,21.828-0.153,43.657-0.055,65.484
		c0.038,8.5,4.625,12.867,13.074,12.885c16.163,0.031,32.326,0.016,48.489,0.008c10.251-0.006,14.588-4.212,14.682-14.502
		C138.355,160.049,138.278,149.217,138.278,138.387z M99.881,62.716c8.496,0,16.993,0.049,25.489-0.017
		c6.019-0.046,8.592-3.139,8.682-10.185c0.091-7.083-2.468-10.405-8.37-10.429c-17.159-0.067-34.319-0.073-51.479,0.007
		c-5.572,0.025-8.178,3.402-8.229,10.142c-0.052,6.967,2.625,10.398,8.417,10.458C82.888,62.779,91.385,62.715,99.881,62.716z"/>
	<path fill-rule="evenodd" clip-rule="evenodd" d="M138.278,138.387c0,10.83,0.077,21.662-0.022,32.491
		c-0.094,10.29-4.431,14.496-14.682,14.502c-16.163,0.008-32.326,0.023-48.489-0.008c-8.449-0.018-13.036-4.385-13.074-12.885
		c-0.098-21.827-0.104-43.656,0.055-65.484c0.05-6.858,1.622-13.179,8.204-17.219c0.89-0.546,1.19-4.123,0.367-5.035
		c-3.879-4.296-3.027-9.06-1.543-13.591c0.537-1.641,3.384-3.558,5.204-3.585c17.325-0.268,34.659-0.304,51.98,0.062
		c1.886,0.04,4.967,2.802,5.306,4.694c0.751,4.192,1.912,8.872-2.188,12.642c-0.696,0.641-0.058,4.32,1.003,5.017
		c5.306,3.491,7.469,8.502,7.58,14.412c0.212,11.325,0.062,22.656,0.062,33.985C138.118,138.386,138.198,138.386,138.278,138.387z
		 M76.379,75.602c6.347,5.103,2.779,11.748,3.292,17.492c0.069,0.773-1.253,2.224-2.155,2.444c-7.045,1.72-7.506,7.169-7.515,12.87
		c-0.033,20.974,0.032,41.948-0.079,62.921c-0.023,4.327,1.281,6.315,6.026,6.25c15.977-0.219,31.961-0.217,47.938,0
		c4.655,0.063,6.184-1.727,6.122-6.148c-0.152-11.15-0.036-22.305-0.053-33.457c-0.017-10.653,0.236-21.322-0.288-31.95
		c-0.152-3.091-1.861-7.865-4.088-8.742c-5.313-2.091-6.068-5.393-5.602-10.083c0.215-2.147-0.284-4.471,0.375-6.436
		c0.595-1.769,2.327-3.157,3.912-5.16C107.844,75.602,92.112,75.602,76.379,75.602z"/>
	<path fill-rule="evenodd" clip-rule="evenodd" d="M99.881,62.715c-8.496,0-16.994,0.064-25.489-0.023
		c-5.792-0.06-8.469-3.491-8.417-10.458c0.051-6.74,2.656-10.116,8.229-10.142c17.16-0.08,34.319-0.074,51.479-0.007
		c5.902,0.023,8.461,3.345,8.37,10.429c-0.09,7.046-2.663,10.139-8.682,10.185C116.875,62.765,108.377,62.716,99.881,62.715z
		 M99.982,54.714c7.134,0,14.272,0.134,21.399-0.109c1.483-0.051,2.92-1.496,4.379-2.298c-1.372-0.748-2.737-2.13-4.117-2.146
		c-14.599-0.157-29.2-0.158-43.798,0.01c-1.287,0.015-2.556,1.528-3.834,2.345c1.357,0.733,2.697,2.059,4.074,2.098
		C85.379,54.825,92.683,54.713,99.982,54.714z"/>
	<path fill-rule="evenodd" clip-rule="evenodd" fill="#FFFFFF" d="M99.982,54.714c-7.299-0.001-14.603,0.111-21.896-0.101
		c-1.377-0.039-2.717-1.365-4.074-2.098c1.278-0.816,2.547-2.33,3.834-2.345c14.598-0.168,29.199-0.167,43.798-0.01
		c1.38,0.016,2.745,1.397,4.117,2.146c-1.459,0.802-2.896,2.248-4.379,2.298C114.254,54.848,107.116,54.714,99.982,54.714z"/>
</g>
</svg>
