<?xml version="1.0" encoding="UTF-8" standalone="no"?>
<!-- Generator: Adobe Illustrator 16.0.0, SVG Export Plug-In . SVG Version: 6.00 Build 0)  -->

<svg
   xmlns:dc="http://purl.org/dc/elements/1.1/"
   xmlns:cc="http://creativecommons.org/ns#"
   xmlns:rdf="http://www.w3.org/1999/02/22-rdf-syntax-ns#"
   xmlns:svg="http://www.w3.org/2000/svg"
   xmlns="http://www.w3.org/2000/svg"
   xmlns:sodipodi="http://sodipodi.sourceforge.net/DTD/sodipodi-0.dtd"
   xmlns:inkscape="http://www.inkscape.org/namespaces/inkscape"
   version="1.1"
   id="Layer_1"
   x="0px"
   y="0px"
   width="80"
   height="160"
   viewBox="0 0 80 160"
   enable-background="new 0 0 207.562 214.378"
   xml:space="preserve"
   sodipodi:docname="pot.svg"
   inkscape:version="0.92.1 15371"><metadata
     id="metadata17"><rdf:RDF><cc:Work
         rdf:about=""><dc:format>image/svg+xml</dc:format><dc:type
           rdf:resource="http://purl.org/dc/dcmitype/StillImage" /><dc:title></dc:title></cc:Work></rdf:RDF></metadata><defs
     id="defs15" /><sodipodi:namedview
     pagecolor="#ffffff"
     bordercolor="#666666"
     borderopacity="1"
     objecttolerance="10"
     gridtolerance="10"
     guidetolerance="10"
     inkscape:pageopacity="0"
     inkscape:pageshadow="2"
     inkscape:window-width="1315"
     inkscape:window-height="744"
     id="namedview13"
     showgrid="false"
     inkscape:zoom="2.2017184"
     inkscape:cx="82.180692"
     inkscape:cy="124.52001"
     inkscape:window-x="51"
     inkscape:window-y="24"
     inkscape:window-maximized="1"
     inkscape:current-layer="g10" /><g
     id="g10"
     transform="translate(0,-54.378006)"><path
       d="m 78.541993,159.32952 c 0,11.28845 0.077,22.57898 -0.022,33.86638 -0.094,10.72558 -4.430998,15.10963 -14.681998,15.11588 -16.163,0.008 -32.326,0.024 -48.489,-0.008 -8.4490005,-0.0188 -13.0360005,-4.57062 -13.0740005,-13.43043 -0.098,-22.75096 -0.104,-45.504 0.055,-68.256 0.05,-7.14831 1.622,-13.73688 8.2040005,-17.9479 0.89,-0.56911 1.19,-4.29753 0.367,-5.24814 -3.8790005,-4.477854 -3.0270005,-9.443519 -1.5430005,-14.166317 0.537,-1.710465 3.3840005,-3.708614 5.2040005,-3.736757 17.325,-0.279345 34.659,-0.316868 51.98,0.06463 1.886,0.04169 4.967,2.920611 5.306,4.892701 0.751,4.369449 1.912,9.247549 -2.188,13.177143 -0.696,0.66813 -0.058,4.50287 1.003,5.22938 5.306,3.63877 7.468998,8.86189 7.579998,15.02207 0.212,11.8044 0.062,23.61505 0.062,35.42362 0.077,0.001 0.157,0.001 0.237,0.002 z M 16.642995,93.886769 c 6.347,5.319017 2.779,12.245311 3.292,18.232461 0.069,0.80572 -1.253,2.31814 -2.155,2.54745 -7.045,1.79281 -7.506,7.47247 -7.515,13.4148 -0.033,21.86185 0.032,43.7237 -0.079,65.58451 -0.023,4.51017 1.281,6.58232 6.026,6.51457 15.977,-0.22827 31.961,-0.22619 47.938,0 4.655,0.0657 6.184,-1.80011 6.122,-6.40825 -0.152,-11.62199 -0.036,-23.24919 -0.053,-34.87327 -0.017,-11.10395 0.236,-22.22458 -0.288,-33.30248 -0.152,-3.22184 -1.861,-8.19793 -4.088,-9.11205 -5.313,-2.17952 -6.068,-5.62129 -5.602,-10.50983 0.215,-2.23788 -0.284,-4.66026 0.375,-6.708444 0.595,-1.84388 2.327,-3.290636 3.912,-5.378425 -16.42,-0.001 -32.152,-0.001 -47.885,-0.001 z"
       id="path4"
       inkscape:connector-curvature="0"
       style="clip-rule:evenodd;fill-rule:evenodd;stroke-width:1.02094615" /><path
       d="m 40.144995,80.65114 c -8.496,0 -16.994,0.064 -25.489,-0.023 -5.7920005,-0.06 -8.4690005,-3.491 -8.4170005,-10.458 0.051,-6.74 2.656,-10.116 8.2290005,-10.142 17.16,-0.08 34.319,-0.074 51.479,-0.007 5.902,0.023 8.461,3.345 8.37,10.429 -0.09,7.046 -2.663,10.139 -8.682,10.185 -8.496,0.066 -16.994,0.017 -25.49,0.016 z m 0.101,-8.001 c 7.134,0 14.272,0.134 21.399,-0.109 1.483,-0.051 2.92,-1.496 4.379,-2.298 -1.372,-0.748 -2.737,-2.13 -4.117,-2.146 -14.599,-0.157 -29.2,-0.158 -43.798,0.01 -1.287,0.015 -2.556,1.528 -3.834,2.345 1.357,0.733 2.697,2.059 4.074,2.098 7.294,0.211 14.598,0.099 21.897,0.1 z"
       id="path6"
       inkscape:connector-curvature="0"
       style="clip-rule:evenodd;fill-rule:evenodd" /><path
       d="m 40.245995,72.65014 c -7.299,-10e-4 -14.603,0.111 -21.896,-0.101 -1.377,-0.039 -2.717,-1.365 -4.074,-2.098 1.278,-0.816 2.547,-2.33 3.834,-2.345 14.598,-0.168 29.199,-0.167 43.798,-0.01 1.38,0.016 2.745,1.397 4.117,2.146 -1.459,0.802 -2.896,2.248 -4.379,2.298 -7.128,0.244 -14.266,0.11 -21.4,0.11 z"
       id="path8"
       inkscape:connector-curvature="0"
       style="clip-rule:evenodd;fill:#ffffff;fill-rule:evenodd" /></g></svg>