<?xml version="1.0" encoding="UTF-8" standalone="no"?>
<!-- Generator: Adobe Illustrator 16.0.0, SVG Export Plug-In . SVG Version: 6.00 Build 0)  -->

<svg
   xmlns:dc="http://purl.org/dc/elements/1.1/"
   xmlns:cc="http://creativecommons.org/ns#"
   xmlns:rdf="http://www.w3.org/1999/02/22-rdf-syntax-ns#"
   xmlns:svg="http://www.w3.org/2000/svg"
   xmlns="http://www.w3.org/2000/svg"
   xmlns:sodipodi="http://sodipodi.sourceforge.net/DTD/sodipodi-0.dtd"
   xmlns:inkscape="http://www.inkscape.org/namespaces/inkscape"
   version="1.1"
   id="Layer_1"
   x="0px"
   y="0px"
   width="300"
   height="300"
   viewBox="0 0 299.99998 299.99999"
   enable-background="new 0 0 595.28 841.89"
   xml:space="preserve"
   sodipodi:docname="pot.svg"
   inkscape:version="0.92.1 15371"><metadata
     id="metadata4071"><rdf:RDF><cc:Work
         rdf:about=""><dc:format>image/svg+xml</dc:format><dc:type
           rdf:resource="http://purl.org/dc/dcmitype/StillImage" /><dc:title></dc:title></cc:Work></rdf:RDF></metadata><defs
     id="defs4069" /><sodipodi:namedview
     pagecolor="#ffffff"
     bordercolor="#666666"
     borderopacity="1"
     objecttolerance="10"
     gridtolerance="10"
     guidetolerance="10"
     inkscape:pageopacity="0"
     inkscape:pageshadow="2"
     inkscape:window-width="1315"
     inkscape:window-height="744"
     id="namedview4067"
     showgrid="false"
     inkscape:zoom="2.2425732"
     inkscape:cx="101.63407"
     inkscape:cy="181.745"
     inkscape:window-x="51"
     inkscape:window-y="24"
     inkscape:window-maximized="1"
     inkscape:current-layer="layer4" /><g
     inkscape:groupmode="layer"
     id="layer4"
     inkscape:label="Layer 1"
     style="display:inline"
     transform="translate(0,-100)"><path
       style="fill:none;fill-opacity:1;stroke-width:1.7836653"
       d="M 75.24216,376.14764 C 52.00129,362.40321 30.63306,332.62766 25.25777,306.4969 c -2.76229,-13.42824 -2.40627,-37.02443 0.74656,-49.48009 7.2183,-28.51682 29.92066,-57.69877 54.49166,-70.04437 l 11.69911,-5.87817 41.88669,0.53988 41.88668,0.53988 10.62616,6.24283 c 13.63901,8.01288 36.04602,30.34987 42.36151,42.22913 7.38998,13.90036 11.96444,34.20541 11.96444,53.10754 0,30.89987 -9.01311,53.09481 -30.16877,74.29105 -7.44206,7.45632 -17.9456,16.07728 -23.34119,19.15765 l -9.81016,5.60067 -45.52405,0.0161 -45.52404,0.0161 -11.31021,-6.68875 z"
       id="path4555"
       inkscape:connector-curvature="0" /><path
       style="fill:none;fill-opacity:1;stroke-width:1.7836653"
       d="M 75.24216,376.14764 C 52.00129,362.40321 30.63306,332.62766 25.25777,306.4969 c -2.76229,-13.42824 -2.40627,-37.02443 0.74656,-49.48009 7.2183,-28.51682 29.92066,-57.69877 54.49166,-70.04437 l 11.69911,-5.87817 41.88669,0.53988 41.88668,0.53988 10.62616,6.24283 c 13.63901,8.01288 36.04602,30.34987 42.36151,42.22913 7.38998,13.90036 11.96444,34.20541 11.96444,53.10754 0,30.89987 -9.01311,53.09481 -30.16877,74.29105 -7.44206,7.45632 -17.9456,16.07728 -23.34119,19.15765 l -9.81016,5.60067 -45.52405,0.0161 -45.52404,0.0161 -11.31021,-6.68875 z"
       id="path4557"
       inkscape:connector-curvature="0" /><path
       style="fill:none;fill-opacity:1;stroke-width:1.7836653"
       d="M 75.24216,376.14764 C 52.00129,362.40321 30.63306,332.62766 25.25777,306.4969 c -2.76229,-13.42824 -2.40627,-37.02443 0.74656,-49.48009 7.2183,-28.51682 29.92066,-57.69877 54.49166,-70.04437 l 11.69911,-5.87817 41.88669,0.53988 41.88668,0.53988 10.62616,6.24283 c 13.63901,8.01288 36.04602,30.34987 42.36151,42.22913 7.38998,13.90036 11.96444,34.20541 11.96444,53.10754 0,30.89987 -9.01311,53.09481 -30.16877,74.29105 -7.44206,7.45632 -17.9456,16.07728 -23.34119,19.15765 l -9.81016,5.60067 -45.52405,0.0161 -45.52404,0.0161 -11.31021,-6.68875 z"
       id="path4559"
       inkscape:connector-curvature="0" /><path
       style="fill:none;fill-opacity:1;stroke-width:0.44591632"
       d="m 89.728101,283.68011 c -3.705694,-0.50259 -11.512444,-4.32296 -18.951443,-9.2742 -36.370399,-24.20737 -54.773331,-68.0174 -46.7961,-111.4028 5.094334,-27.70631 21.349339,-53.06749 44.607457,-69.596877 5.278673,-3.751518 12.831831,-8.141475 17.774399,-10.330627 l 3.588646,-1.589477 21.2925,-0.287583 c 11.71088,-0.15817 30.87414,-0.162495 42.58501,-0.0096 l 21.29251,0.277971 5.71941,3.023316 c 36.36359,19.222037 56.51956,47.772287 60.4894,85.681177 0.65975,6.30009 0.66874,20.57881 0.0167,26.56487 -1.66452,15.28181 -6.35942,29.84313 -13.57522,42.10383 -7.37956,12.53893 -19.84069,25.49149 -33.25295,34.56434 -7.84063,5.30387 -14.17614,8.83432 -17.16778,9.56674 -2.21784,0.54298 -9.69293,0.69325 -43.6998,0.87853 -22.64314,0.12336 -42.322971,0.0474 -43.922759,-0.1696 z"
       id="path4581"
       inkscape:connector-curvature="0"
       transform="translate(0,100)" /><path
       style="fill:none;fill-opacity:1;stroke-width:0.44591632"
       d="m 89.728101,283.68011 c -3.705694,-0.50259 -11.512444,-4.32296 -18.951443,-9.2742 -36.370399,-24.20737 -54.773331,-68.0174 -46.7961,-111.4028 5.094334,-27.70631 21.349339,-53.06749 44.607457,-69.596877 5.278673,-3.751518 12.831831,-8.141475 17.774399,-10.330627 l 3.588646,-1.589477 21.2925,-0.287583 c 11.71088,-0.15817 30.87414,-0.162495 42.58501,-0.0096 l 21.29251,0.277971 5.71941,3.023316 c 36.36359,19.222037 56.51956,47.772287 60.4894,85.681177 0.65975,6.30009 0.66874,20.57881 0.0167,26.56487 -1.66452,15.28181 -6.35942,29.84313 -13.57522,42.10383 -7.37956,12.53893 -19.84069,25.49149 -33.25295,34.56434 -7.84063,5.30387 -14.17614,8.83432 -17.16778,9.56674 -2.21784,0.54298 -9.69293,0.69325 -43.6998,0.87853 -22.64314,0.12336 -42.322971,0.0474 -43.922759,-0.1696 z"
       id="path4585"
       inkscape:connector-curvature="0"
       transform="translate(0,100)" /><path
       style="fill:#a2b8f4;fill-opacity:1;stroke-width:0.71692204"
       d="M -10.882812 -7.2109375 L -10.882812 307.29297 L 306.14453 307.29297 L 306.14453 -7.2109375 L -10.882812 -7.2109375 z M 132.53516 81.076172 C 140.25369 81.074381 147.97269 81.113203 153.82812 81.189453 L 175.12109 81.466797 L 180.83984 84.490234 C 217.20343 103.71227 237.36024 132.26298 241.33008 170.17188 C 241.98983 176.47197 241.99774 190.75027 241.3457 196.73633 C 239.68118 212.01814 234.98728 226.57914 227.77148 238.83984 C 220.39192 251.37877 207.92984 264.33145 194.51758 273.4043 C 186.67695 278.70817 180.3432 282.23828 177.35156 282.9707 C 175.13372 283.51368 167.65726 283.66433 133.65039 283.84961 C 111.00725 283.97297 91.328304 283.89669 89.728516 283.67969 C 86.022822 283.1771 78.216343 279.35749 70.777344 274.40625 C 34.406945 250.19888 16.003238 206.38931 23.980469 163.00391 C 29.074803 135.2976 45.329773 109.93564 68.587891 93.40625 C 73.866564 89.65473 81.420713 85.265322 86.363281 83.076172 L 89.951172 81.486328 L 111.24414 81.199219 C 117.09958 81.120134 124.81662 81.077963 132.53516 81.076172 z "
       transform="translate(0,100)"
       id="rect4544" /><path
       style="fill:none;fill-opacity:1;stroke:none;stroke-width:0.44591632;stroke-opacity:1"
       d="m 86.666774,282.78147 c -4.302151,-1.54698 -9.799247,-4.49795 -15.796256,-8.47981 -35.840419,-23.79711 -54.1516,-66.34056 -47.106392,-109.44507 5.582551,-34.15557 28.192755,-64.48885 59.933283,-80.404958 4.119829,-2.065867 5.402909,-2.49263 8.525933,-2.835799 2.021954,-0.222179 21.511138,-0.346579 43.309298,-0.276445 l 39.63303,0.127517 4.90508,2.640691 c 18.74956,10.093988 32.08201,21.162384 42.20654,35.039234 8.15399,11.17601 14.33997,25.26734 17.07345,38.89239 2.02101,10.07376 2.25848,12.88394 2.21498,26.2114 -0.0379,11.61553 -0.14105,13.26474 -1.19905,19.1744 -5.53208,30.90014 -21.15392,53.74832 -49.36298,72.19724 -2.98131,1.9498 -7.13146,4.39262 -9.22256,5.4285 -3.64474,1.80552 -4.03539,1.89818 -9.44493,2.24035 -3.10362,0.19631 -23.10056,0.35913 -44.43766,0.36181 -37.448384,0.005 -38.879298,-0.0256 -41.231766,-0.87145 z"
       id="path6061"
       inkscape:connector-curvature="0"
       transform="translate(0,100)" /><path
       style="fill:none;fill-opacity:1;stroke:none;stroke-width:0.44591632;stroke-opacity:1"
       d="m 86.666774,282.78147 c -4.302151,-1.54698 -9.799247,-4.49795 -15.796256,-8.47981 -35.840419,-23.79711 -54.1516,-66.34056 -47.106392,-109.44507 5.582551,-34.15557 28.192755,-64.48885 59.933283,-80.404958 4.119829,-2.065867 5.402909,-2.49263 8.525933,-2.835799 2.021954,-0.222179 21.511138,-0.346579 43.309298,-0.276445 l 39.63303,0.127517 4.90508,2.640691 c 18.74956,10.093988 32.08201,21.162384 42.20654,35.039234 8.15399,11.17601 14.33997,25.26734 17.07345,38.89239 2.02101,10.07376 2.25848,12.88394 2.21498,26.2114 -0.0379,11.61553 -0.14105,13.26474 -1.19905,19.1744 -5.53208,30.90014 -21.15392,53.74832 -49.36298,72.19724 -2.98131,1.9498 -7.13146,4.39262 -9.22256,5.4285 -3.64474,1.80552 -4.03539,1.89818 -9.44493,2.24035 -3.10362,0.19631 -23.10056,0.35913 -44.43766,0.36181 -37.448384,0.005 -38.879298,-0.0256 -41.231766,-0.87145 z"
       id="path6063"
       inkscape:connector-curvature="0"
       transform="translate(0,100)" /><path
       style="fill:none;fill-opacity:1;stroke:none;stroke-width:0.44591632;stroke-opacity:1"
       d="m 86.666774,282.78147 c -4.302151,-1.54698 -9.799247,-4.49795 -15.796256,-8.47981 -35.840419,-23.79711 -54.1516,-66.34056 -47.106392,-109.44507 5.582551,-34.15557 28.192755,-64.48885 59.933283,-80.404958 4.119829,-2.065867 5.402909,-2.49263 8.525933,-2.835799 2.021954,-0.222179 21.511138,-0.346579 43.309298,-0.276445 l 39.63303,0.127517 4.90508,2.640691 c 18.74956,10.093988 32.08201,21.162384 42.20654,35.039234 8.15399,11.17601 14.33997,25.26734 17.07345,38.89239 2.02101,10.07376 2.25848,12.88394 2.21498,26.2114 -0.0379,11.61553 -0.14105,13.26474 -1.19905,19.1744 -5.53208,30.90014 -21.15392,53.74832 -49.36298,72.19724 -2.98131,1.9498 -7.13146,4.39262 -9.22256,5.4285 -3.64474,1.80552 -4.03539,1.89818 -9.44493,2.24035 -3.10362,0.19631 -23.10056,0.35913 -44.43766,0.36181 -37.448384,0.005 -38.879298,-0.0256 -41.231766,-0.87145 z"
       id="path6065"
       inkscape:connector-curvature="0"
       transform="translate(0,100)" /></g><g
     inkscape:groupmode="layer"
     id="layer1"
     inkscape:label="Layer 3"
     style="display:inline"
     transform="translate(0,-100)"><path
       style="clip-rule:evenodd;display:inline;fill-rule:evenodd"
       inkscape:connector-curvature="0"
       id="path4056"
       d="m 226.14312,213.96701 c 5.52,12.489 12.049,24.22 16.014,36.762 16.828,53.239 -10.496,113.373 -61.254,136.235 -1.756,0.791 -3.826,1.225 -5.756,1.241 -28.163,0.246 -56.327,0.444 -84.492,0.477 -2.54,0.003 -5.287,-0.798 -7.59,-1.933 -41.857,-20.622 -64.334,-54.86 -65.284,-100.938 -1.002,-48.56 22.235,-84.263 65.563,-106.43 3.799,-1.943 4.577,-3.969 4.84,-7.863 0.982,-14.558 -2.086,-27.474 -12.363,-38.47199 -4.168,-4.46 -7.285,-9.924 -10.7,-15.052 -1.023,-1.536 -1.434,-3.479 -2.125,-5.235 1.84,-0.246 3.749,-0.94 5.51,-0.671 28.642,4.385 57.266,8.887 85.892,13.375 11.848,1.857 23.688,3.751 35.534,5.62 5.872,0.927 6.155,1.417 3.778,7.04899 -5.433,12.869 -10.887,25.73 -16.547,39.104 8.89,3.815 16.194,9.77 26.871,9.116 16.438,-1.006 32.982,-0.282 49.481,-0.242 16.021,0.039 26.611,9.349 26.817,25.118 0.432,33.155 0.14,66.32 0.135,99.481 -0.001,2.999 0.003,6.002 -0.136,8.996 -0.202,4.35 -4.507,9.25 -8.299,9.244 -4.9,-0.008 -5.87,-4.025 -6.479,-7.551 -0.789,-4.569 -1.028,-9.27 -1.104,-13.92 -0.425,-26.045 -2.252,-51.935 -8.377,-77.35 -3.418,-14.177 -17.709,-21.416 -29.929,-16.161 z m -93.766,170.204 c 0,-0.09 0,-0.179 0,-0.268 13.494,0 26.988,0.104 40.479,-0.087 2.71,-0.038 5.7,-0.643 8.063,-1.912 40.532,-21.779 62.413,-55.597 61.218,-101.765 -1.181,-45.597 -24.506,-77.987 -65.321,-97.882 -1.992,-0.971 -4.471,-1.313 -6.725,-1.322 -25.155,-0.096 -50.311,-0.116 -75.465,0 -2.563,0.013 -5.318,0.618 -7.65,1.682 -18.107,8.255 -32.93,20.496 -44.557,36.721 -39.5589998,55.203 -19.82,133.137 41.401,162.765 2.586,1.252 5.696,1.934 8.576,1.978 13.325,0.204 26.654,0.09 39.981,0.09 z m -40.273,-207.886 c 26.906,0 52.542,0.046 78.178,-0.139 1.252,-0.009 3.039,-1.785 3.646,-3.152 3.992,-8.972 7.743,-18.052 11.541,-27.109 1.378,-3.284 2.67,-6.604 4.172,-10.336 -39.992,-6.26699 -79.235,-12.41599 -119.609,-18.74199 1.405,2.178 2.211,3.528 3.116,4.811 5.089,7.211 10.087,14.49099 15.356,21.56799 2.498,3.355 3.8,6.785 3.663,11.021 -0.231,7.12 -0.063,14.253 -0.063,22.078 z m 112.761,14.379 c 3.822,4.695 8.563,10.285 13.02,16.09 2.203,2.867 4.183,3.553 7.918,2.451 15.69,-4.625 30.141,3.427 34.239,19.113 2.181,8.348 4.106,16.883 4.894,25.449 1.78,19.376 2.734,38.827 4.143,58.238 0.298,4.112 1.102,8.188 1.672,12.28 0.806,0.087 1.612,0.173 2.418,0.259 0.959,-2.388 2.741,-4.771 2.753,-7.164 0.182,-35.634 0.134,-71.269 0.127,-106.904 -0.001,-7.992 -3.769,-13.799 -10.946,-16.954 -3.55,-1.561 -7.604,-2.668 -11.452,-2.733 -17.115,-0.288 -34.235,-0.125 -48.786,-0.125 z" /><path
       style="fill:none;fill-opacity:1;stroke-width:1.7836653"
       d="M 75.24216,376.14764 C 52.00129,362.40321 30.63306,332.62766 25.25777,306.4969 c -2.76229,-13.42824 -2.40627,-37.02443 0.74656,-49.48009 7.2183,-28.51682 29.92066,-57.69877 54.49166,-70.04437 l 11.69911,-5.87817 41.88669,0.53988 41.88668,0.53988 10.62616,6.24283 c 13.63901,8.01288 36.04602,30.34987 42.36151,42.22913 7.38998,13.90036 11.96444,34.20541 11.96444,53.10754 0,30.89987 -9.01311,53.09481 -30.16877,74.29105 -7.44206,7.45632 -17.9456,16.07728 -23.34119,19.15765 l -9.81016,5.60067 -45.52405,0.0161 -45.52404,0.0161 -11.31021,-6.68875 z"
       id="path4551"
       inkscape:connector-curvature="0" /><path
       style="fill:none;fill-opacity:1;stroke-width:1.7836653"
       d="M 75.24216,376.14764 C 52.00129,362.40321 30.63306,332.62766 25.25777,306.4969 c -2.76229,-13.42824 -2.40627,-37.02443 0.74656,-49.48009 7.2183,-28.51682 29.92066,-57.69877 54.49166,-70.04437 l 11.69911,-5.87817 41.88669,0.53988 41.88668,0.53988 10.62616,6.24283 c 13.63901,8.01288 36.04602,30.34987 42.36151,42.22913 7.38998,13.90036 11.96444,34.20541 11.96444,53.10754 0,30.89987 -9.01311,53.09481 -30.16877,74.29105 -7.44206,7.45632 -17.9456,16.07728 -23.34119,19.15765 l -9.81016,5.60067 -45.52405,0.0161 -45.52404,0.0161 -11.31021,-6.68875 z"
       id="path4553"
       inkscape:connector-curvature="0" /><path
       style="display:inline;fill:#ffffff;fill-opacity:1;stroke-width:0.22295816"
       d="m 92.189025,72.62205 c -0.0872,-1.931375 -0.126003,-7.675334 -0.08622,-12.764355 0.07166,-9.167136 0.06755,-9.267207 -0.443316,-10.81347 C 90.854731,46.608451 89.730071,44.710716 86.241678,39.902289 78.018718,28.567699 70.287806,17.357437 70.528277,17.116965 70.62826,17.016983 189.297,35.516451 189.453,35.656338 c 0.16601,0.148877 -12.43575,30.272305 -15.17194,36.267211 -0.42633,0.934063 -1.14044,2.102641 -1.58692,2.596838 -1.59332,1.763617 2.25904,1.613254 -41.33224,1.613254 H 92.347574 Z"
       id="path4567"
       inkscape:connector-curvature="0"
       transform="translate(0,100)" /><path
       style="display:inline;fill:#ffffff;fill-opacity:1;stroke-width:0.31531045"
       d="m 271.24228,224.10574 c -0.92439,-0.60123 -1.8743,-9.85894 -3.49752,-34.08623 -1.73658,-25.91925 -2.57637,-36.42517 -3.33957,-41.77863 -1.1009,-7.72227 -3.95407,-19.89084 -5.63411,-24.02908 -3.48708,-8.58931 -10.7246,-14.46733 -19.75503,-16.04425 -3.73457,-0.65214 -7.41273,-0.44889 -12.38173,0.6842 -2.42574,0.55315 -4.03509,0.7642 -4.77241,0.62588 -1.36054,-0.25524 -2.78067,-1.46871 -4.94697,-4.22709 -0.90668,-1.15448 -3.78956,-4.72402 -6.40641,-7.932302 -2.61685,-3.208284 -4.87702,-6.030353 -5.0226,-6.271264 -0.22538,-0.372995 3.52195,-0.410418 25.24237,-0.25209 27.82782,0.202847 26.91091,0.142729 32.38457,2.123331 5.23117,1.89286 8.92398,4.938562 10.89893,8.989085 2.04843,4.2012 1.95901,1.23285 1.86132,61.78379 l -0.0885,54.86402 -1.32779,2.83779 c -1.05537,2.25556 -1.47587,2.85456 -2.04952,2.91948 -0.39695,0.0449 -0.92121,-0.0481 -1.16501,-0.20664 z"
       id="path4575"
       inkscape:connector-curvature="0"
       transform="translate(0,100)" /></g></svg>