<?xml version="1.0" encoding="utf-8"?>
<!-- Generator: Adobe Illustrator 16.0.0, SVG Export Plug-In . SVG Version: 6.00 Build 0)  -->
<!DOCTYPE svg PUBLIC "-//W3C//DTD SVG 1.1//EN" "http://www.w3.org/Graphics/SVG/1.1/DTD/svg11.dtd">
<svg version="1.1"
	 id="Layer_1" xmlns:dc="http://purl.org/dc/elements/1.1/" xmlns:cc="http://creativecommons.org/ns#" xmlns:rdf="http://www.w3.org/1999/02/22-rdf-syntax-ns#" xmlns:svg="http://www.w3.org/2000/svg" xmlns:sodipodi="http://sodipodi.sourceforge.net/DTD/sodipodi-0.dtd" xmlns:inkscape="http://www.inkscape.org/namespaces/inkscape" inkscape:version="0.92.1 15371" sodipodi:docname="butelka2.svg"
	 xmlns="http://www.w3.org/2000/svg" xmlns:xlink="http://www.w3.org/1999/xlink" x="0px" y="0px" width="80px" height="160px"
	 viewBox="0 0 80 160" enable-background="new 0 0 80 160" xml:space="preserve">
<defs>
	
	
		<inkscape:path-effect  weight="33.333333" only_selected="false" apply_no_weight="true" helper_size="0" is_visible="true" effect="bspline" steps="2" id="path-effect936" apply_with_weight="true">
		</inkscape:path-effect>
	
		<inkscape:path-effect  weight="33.333333" only_selected="false" apply_no_weight="true" helper_size="0" is_visible="true" effect="bspline" steps="2" id="path-effect932" apply_with_weight="true">
		</inkscape:path-effect>
	
		<inkscape:path-effect  weight="33.333333" only_selected="false" apply_no_weight="true" helper_size="0" is_visible="true" effect="bspline" steps="2" id="path-effect928" apply_with_weight="true">
		</inkscape:path-effect>
	
		<inkscape:path-effect  weight="33.333333" only_selected="false" apply_no_weight="true" helper_size="0" is_visible="true" effect="bspline" steps="2" id="path-effect906" apply_with_weight="true">
		</inkscape:path-effect>
	
		<inkscape:path-effect  weight="33.333333" only_selected="false" apply_no_weight="true" helper_size="0" is_visible="true" effect="bspline" steps="2" id="path-effect902" apply_with_weight="true">
		</inkscape:path-effect>
	
		<inkscape:path-effect  weight="33.333333" only_selected="false" apply_no_weight="true" helper_size="0" is_visible="true" effect="bspline" steps="2" id="path-effect896" apply_with_weight="true">
		</inkscape:path-effect>
	
		<inkscape:path-effect  weight="33.333333" only_selected="false" apply_no_weight="true" helper_size="0" is_visible="true" effect="bspline" steps="2" id="path-effect41" apply_with_weight="true">
		</inkscape:path-effect>
	
		<inkscape:path-effect  weight="33.333333" only_selected="false" apply_no_weight="true" helper_size="0" is_visible="true" effect="bspline" steps="2" id="path-effect37" apply_with_weight="true">
		</inkscape:path-effect>
	
		<inkscape:path-effect  weight="33.333333" only_selected="false" apply_no_weight="true" helper_size="0" is_visible="true" effect="bspline" steps="2" id="path-effect33" apply_with_weight="true">
		</inkscape:path-effect>
	
		<inkscape:path-effect  weight="33.333333" only_selected="false" apply_no_weight="true" helper_size="0" is_visible="true" effect="bspline" steps="2" id="path-effect25" apply_with_weight="true">
		</inkscape:path-effect>
	
		<inkscape:path-effect  weight="33.333333" only_selected="false" apply_no_weight="true" helper_size="0" is_visible="true" effect="bspline" steps="2" id="path-effect41-7" apply_with_weight="true">
		</inkscape:path-effect>
	
		<inkscape:path-effect  weight="33.333333" only_selected="false" apply_no_weight="true" helper_size="0" is_visible="true" effect="bspline" steps="2" id="path-effect906-3" apply_with_weight="true">
		</inkscape:path-effect>
</defs>
<sodipodi:namedview  inkscape:cy="103.14516" inkscape:cx="28.152532" inkscape:zoom="4.4034368" showgrid="true" guidetolerance="10" gridtolerance="10" objecttolerance="10" borderopacity="1" bordercolor="#666666" pagecolor="#ffffff" id="namedview13" inkscape:current-layer="Layer_1" inkscape:window-maximized="1" inkscape:window-y="24" inkscape:window-x="51" inkscape:window-height="744" inkscape:window-width="1315" inkscape:pageshadow="2" inkscape:pageopacity="0">
	<inkscape:grid  type="xygrid" id="grid19"></inkscape:grid>
</sodipodi:namedview>
<path id="path934" inkscape:connector-curvature="0" inkscape:original-d="M 74,78.999991 C 74.001,97.999 74.001,116.999 74,136 M 6,78.999991 C 6.001,97.999 6.001,116.999 6,136 m 68,0 c -0.001,4.33233 -0.001,8.66567 0,13 -4.33541,-0.001 -8.66767,-0.001 -13,0 M 27,38.999991 c 8.667667,-0.001 17.33433,-0.001 26,0 m 21,40 c -0.001,-3.24769 -0.001,-6.66765 0,-9.99999 -1.001,-1.66768 -3,-5.00001 -3,-5.00001 0,0 -2.77111,-2.07858 -4,-3 -0.30847,-1.2309 -0.66767,-2.66767 -1,-4 -0.001,-1.66767 -0.001,-3.33384 0,-5 0.9993,-2.33504 1.9987,-4.66697 3,-7 -0.001,-0.66787 -0.001,-1.33434 0,-2 -0.001,-0.66767 -0.001,-1.33434 0,-2 l -2,-2 c -2.66567,-0.001 -5.33433,-0.001 -8,0 -2.001,-0.001 -6,0 -6,0 m -47,40 c 0.001,-3.24769 0.001,-6.66765 0,-9.99999 1.001001,-1.66767 3,-5.00001 3,-5.00001 0,0 2.771107,-2.07858 4,-3 0.308473,-1.23089 0.667667,-2.66767 1,-4 10e-4,-1.66767 10e-4,-3.33383 0,-5 -0.9993,-2.33503 -1.998699,-4.66696 -3,-7 10e-4,-0.66787 10e-4,-1.33433 0,-2 10e-4,-0.66767 10e-4,-1.33433 0,-2 l 2,-2 c 2.665666,-0.001 5.334333,-0.001 8,0 2.001,-0.001 6,0 6,0 M 19,149 c 14.001,-0.001 28.001,-0.001 42,0 M 6,136 c 0.001,4.33233 0.001,8.66567 0,13 4.335416,-0.001 8.667666,-0.001 13,0" inkscape:path-effect="#path-effect936" fill="none" stroke="#000000" stroke-width="8" d="
	M74,79c0,18.999,0,37.999,0,57 M6,79c0,18.999,0,37.999,0,57 M74,136c0,4.332,0,8.666-2.168,10.833S65.332,149,61,149 M27,39
	c8.667,0,17.334,0,26,0 M74,79c0-3.248,0-6.667-0.5-9.168c-0.5-2.5-5.271-7.911-6.039-8.987c-0.769-1.076-1.128-2.513-1.295-4.013
	C66,55.333,66,53.666,66.5,51.666c0.5-2,1.5-4.333,2-5.833c0.5-1.501,0.5-2.167,0.5-2.834s0-1.333,0-1.666C69,41,67,39,65.667,39
	s-4.001,0-6.335,0C56.999,39,55,39,53,39 M6,79c0-3.248,0-6.667,0.5-9.168c0.5-2.5,5.271-7.911,6.039-8.987
	c0.768-1.076,1.127-2.513,1.294-4.013C14,55.333,14,53.666,13.5,51.666c-0.5-2-1.5-4.333-2-5.833C11,44.332,11,43.666,11,42.999
	s0-1.333,0-1.666C11,41,13,39,14.333,39c1.333,0,4.001,0,6.334,0C23.001,39,25,39,27,39 M19,149c14.001,0,28.001,0,42,0 M6,136
	c0,4.332,0,8.666,2.167,10.833C10.335,149,14.667,149,19,149"/>
<path id="path940" inkscape:connector-curvature="0" d="M12.735,26.246c-3.434-0.783-5.179-2.948-5.841-7.243
	c-0.289-1.869-0.125-5.371,0.33-7.091c0.661-2.506,1.907-4.112,3.946-5.088l1.229-0.589l27.149-0.061
	C69.313,6.106,68.365,6.067,70.32,7.438c1.107,0.777,2.232,2.442,2.691,3.985c0.5,1.679,0.664,5.386,0.342,7.659
	c-0.516,3.625-2.113,5.958-4.746,6.925c-1.154,0.423-2.123,0.44-27.918,0.479C20.177,26.517,13.679,26.461,12.735,26.246
	L12.735,26.246z"/>
<path fill="#F4F2F2" d="M66.166,16.094c0,2.227-1.774,4.031-3.963,4.031H18.088c-2.189,0-3.963-1.805-3.963-4.031l0,0
	c0-2.227,1.774-4.031,3.963-4.031h44.115C64.392,12.063,66.166,13.867,66.166,16.094L66.166,16.094z"/>
</svg>
